<svg data-v-423bf9ae="" xmlns="http://www.w3.org/2000/svg" viewBox="0 0 230.27142660958427 60" class="font"><!----><!----><!----><g data-v-423bf9ae="" id="86505440-445b-48fc-a29b-fc54736d9506" fill="black" transform="matrix(4.285714285714286,0,0,4.285714285714286,-1.6285684917654208,-17.099999802453176)"><path d="M2.13 6.50L2.13 6.50L2.13 6.50Q2.13 5.42 3.06 4.70L3.06 4.70L3.06 4.70Q3.99 3.99 5.36 3.99L5.36 3.99L5.36 3.99Q6.43 3.99 7.02 4.42L7.02 4.42L7.02 4.42Q7.62 4.86 7.62 5.67L7.62 5.67L7.62 5.67Q7.62 6.30 7.30 6.69L7.30 6.69L7.30 6.69Q6.99 7.08 6.47 7.08L6.47 7.08L6.47 7.08Q6.27 7.08 6.11 7.01L6.11 7.01L6.11 7.01Q5.95 6.94 5.82 6.79L5.82 6.79L5.82 6.79Q6.10 6.62 6.28 6.29L6.28 6.29L6.28 6.29Q6.45 5.95 6.45 5.59L6.45 5.59L6.45 5.59Q6.45 5.14 6.19 4.89L6.19 4.89L6.19 4.89Q5.92 4.65 5.42 4.65L5.42 4.65L5.42 4.65Q4.82 4.65 4.47 4.98L4.47 4.98L4.47 4.98Q4.13 5.32 4.13 5.92L4.13 5.92L4.13 5.92Q4.13 6.41 4.38 6.85L4.38 6.85L4.38 6.85Q4.63 7.29 5.47 8.04L5.47 8.04L5.47 8.04Q6.58 9.00 6.93 9.71L6.93 9.71L6.93 9.71Q7.28 10.42 7.28 11.28L7.28 11.28L7.28 11.28Q7.28 12.88 6.17 13.83L6.17 13.83L6.17 13.83Q5.07 14.78 3.35 14.78L3.35 14.78L3.35 14.78Q1.97 14.78 1.18 14.15L1.18 14.15L1.18 14.15Q0.38 13.52 0.38 12.38L0.38 12.38L0.38 12.38Q0.38 11.37 0.98 10.72L0.98 10.72L0.98 10.72Q1.58 10.08 2.44 10.08L2.44 10.08L2.44 10.08Q2.97 10.08 3.30 10.32L3.30 10.32L3.30 10.32Q3.64 10.57 3.67 11.00L3.67 11.00L3.67 11.00Q2.94 11.00 2.48 11.35L2.48 11.35L2.48 11.35Q2.03 11.70 2.03 12.32L2.03 12.32L2.03 12.32Q2.03 12.91 2.39 13.29L2.39 13.29L2.39 13.29Q2.76 13.66 3.37 13.66L3.37 13.66L3.37 13.66Q4.10 13.66 4.55 13.16L4.55 13.16L4.55 13.16Q5.00 12.66 5.00 11.80L5.00 11.80L5.00 11.80Q5.00 11.14 4.70 10.54L4.70 10.54L4.70 10.54Q4.41 9.94 3.49 8.93L3.49 8.93L3.49 8.93Q2.65 8.04 2.39 7.53L2.39 7.53L2.39 7.53Q2.13 7.01 2.13 6.50ZM7.78 12.33L7.78 12.33L7.78 12.33Q7.78 11.54 8.04 10.64L8.04 10.64L8.04 10.64Q8.30 9.74 8.75 9.04L8.75 9.04L8.75 9.04Q9.27 8.22 10.00 7.79L10.00 7.79L10.00 7.79Q10.72 7.36 11.62 7.36L11.62 7.36L11.62 7.36Q12.52 7.36 12.96 7.92L12.96 7.92L12.96 7.92Q13.41 8.48 13.41 9.60L13.41 9.60L13.41 9.60Q13.44 9.62 13.48 9.63L13.48 9.63L13.48 9.63Q13.51 9.63 13.57 9.63L13.57 9.63L13.57 9.63Q14 9.63 14.60 9.39L14.60 9.39L14.60 9.39Q15.20 9.16 15.72 8.79L15.72 8.79L15.85 9.17L15.85 9.17Q15.46 9.59 14.80 9.90L14.80 9.90L14.80 9.90Q14.15 10.21 13.37 10.33L13.37 10.33L13.37 10.33Q13.20 12.22 12.28 13.38L12.28 13.38L12.28 13.38Q11.35 14.55 10.02 14.55L10.02 14.55L10.02 14.55Q8.93 14.55 8.36 13.99L8.36 13.99L8.36 13.99Q7.78 13.43 7.78 12.33ZM11.73 8.22L11.73 8.22L11.73 8.22Q11.06 8.22 10.46 9.58L10.46 9.58L10.46 9.58Q9.87 10.93 9.87 12.15L9.87 12.15L9.87 12.15Q9.87 12.81 10.02 13.05L10.02 13.05L10.02 13.05Q10.16 13.29 10.58 13.29L10.58 13.29L10.58 13.29Q11.10 13.29 11.57 12.45L11.57 12.45L11.57 12.45Q12.04 11.61 12.21 10.37L12.21 10.37L12.21 10.37Q12.01 10.33 11.92 10.19L11.92 10.19L11.92 10.19Q11.83 10.04 11.83 9.79L11.83 9.79L11.83 9.79Q11.83 9.52 11.94 9.32L11.94 9.32L11.94 9.32Q12.05 9.13 12.26 9.03L12.26 9.03L12.26 9.03Q12.24 8.58 12.12 8.40L12.12 8.40L12.12 8.40Q12.00 8.22 11.73 8.22ZM17.60 12.99L17.60 12.99L17.60 12.99Q17.60 12.74 17.66 12.36L17.66 12.36L17.66 12.36Q17.72 11.98 17.92 11.16L17.92 11.16L17.92 11.16Q18.12 10.36 18.17 10.01L18.17 10.01L18.17 10.01Q18.23 9.66 18.23 9.42L18.23 9.42L18.23 9.42Q18.23 9.07 18.10 8.89L18.10 8.89L18.10 8.89Q17.98 8.71 17.72 8.71L17.72 8.71L17.72 8.71Q17.39 8.71 17.10 9.05L17.10 9.05L17.10 9.05Q16.81 9.39 16.63 10.00L16.63 10.00L15.68 14.49L13.66 14.49L15.15 7.49L17.16 7.49L17.01 8.22L17.01 8.22Q17.36 7.83 17.77 7.63L17.77 7.63L17.77 7.63Q18.17 7.43 18.65 7.43L18.65 7.43L18.65 7.43Q19.39 7.43 19.80 7.84L19.80 7.84L19.80 7.84Q20.20 8.25 20.20 9.02L20.20 9.02L20.20 9.02Q20.20 9.34 20.13 9.78L20.13 9.78L20.13 9.78Q20.05 10.22 19.82 11.13L19.82 11.13L19.82 11.13Q19.64 11.84 19.59 12.14L19.59 12.14L19.59 12.14Q19.53 12.43 19.53 12.63L19.53 12.63L19.53 12.63Q19.53 12.92 19.67 13.07L19.67 13.07L19.67 13.07Q19.81 13.22 20.09 13.22L20.09 13.22L20.09 13.22Q20.44 13.22 20.69 12.98L20.69 12.98L20.69 12.98Q20.94 12.74 21.27 11.98L21.27 11.98L21.85 11.98L21.85 11.98Q21.41 13.29 20.77 13.93L20.77 13.93L20.77 13.93Q20.13 14.57 19.25 14.57L19.25 14.57L19.25 14.57Q18.47 14.57 18.03 14.15L18.03 14.15L18.03 14.15Q17.60 13.72 17.60 12.99ZM25.90 8.13L25.90 8.13L25.90 8.22L26.05 7.49L28.07 7.49L26.68 13.99L26.68 13.99Q27.38 13.73 27.78 13.28L27.78 13.28L27.78 13.28Q28.18 12.82 28.45 11.98L28.45 11.98L29.04 11.98L29.04 11.98Q28.71 13.05 28.12 13.69L28.12 13.69L28.12 13.69Q27.52 14.34 26.56 14.60L26.56 14.60L26.35 15.61L26.35 15.61Q26.10 16.79 25.47 17.39L25.47 17.39L25.47 17.39Q24.84 17.99 23.83 17.99L23.83 17.99L23.83 17.99Q23.11 17.99 22.69 17.63L22.69 17.63L22.69 17.63Q22.26 17.26 22.26 16.63L22.26 16.63L22.26 16.63Q22.26 15.95 22.83 15.42L22.83 15.42L22.83 15.42Q23.39 14.90 24.54 14.55L24.54 14.55L24.71 13.80L24.71 13.80Q24.35 14.18 23.93 14.38L23.93 14.38L23.93 14.38Q23.51 14.57 23.03 14.57L23.03 14.57L23.03 14.57Q22.16 14.57 21.67 13.99L21.67 13.99L21.67 13.99Q21.17 13.40 21.17 12.32L21.17 12.32L21.17 12.32Q21.17 11.54 21.41 10.68L21.41 10.68L21.41 10.68Q21.64 9.83 22.06 9.13L22.06 9.13L22.06 9.13Q22.58 8.30 23.27 7.86L23.27 7.86L23.27 7.86Q23.95 7.42 24.77 7.42L24.77 7.42L24.77 7.42Q25.31 7.42 25.61 7.61L25.61 7.61L25.61 7.61Q25.90 7.80 25.90 8.13ZM25.06 12.12L25.77 8.81L25.77 8.81Q25.76 8.58 25.61 8.44L25.61 8.44L25.61 8.44Q25.45 8.29 25.20 8.29L25.20 8.29L25.20 8.29Q24.43 8.29 23.84 9.58L23.84 9.58L23.84 9.58Q23.24 10.86 23.24 12.12L23.24 12.12L23.24 12.12Q23.24 12.67 23.39 12.94L23.39 12.94L23.39 12.94Q23.55 13.22 23.94 13.22L23.94 13.22L23.94 13.22Q24.28 13.22 24.61 12.91L24.61 12.91L24.61 12.91Q24.93 12.60 25.06 12.12L25.06 12.12ZM24.32 15.65L24.40 15.25L24.40 15.25Q23.70 15.51 23.37 15.80L23.37 15.80L23.37 15.80Q23.03 16.09 23.03 16.44L23.03 16.44L23.03 16.44Q23.03 16.62 23.17 16.76L23.17 16.76L23.17 16.76Q23.31 16.90 23.51 16.90L23.51 16.90L23.51 16.90Q23.74 16.90 23.97 16.56L23.97 16.56L23.97 16.56Q24.19 16.23 24.32 15.65L24.32 15.65ZM32.93 9.13L31.78 14.49L29.76 14.49L31.67 5.59L33.74 5.31L33.08 8.41L33.17 8.41L33.17 8.41Q33.95 8.41 34.57 7.70L34.57 7.70L34.57 7.70Q35.18 6.99 35.18 6.15L35.18 6.15L35.18 6.15Q35.18 5.45 34.70 5.04L34.70 5.04L34.70 5.04Q34.22 4.63 33.33 4.63L33.33 4.63L33.33 4.63Q31.86 4.63 30.85 5.57L30.85 5.57L30.85 5.57Q29.83 6.51 29.83 8.04L29.83 8.04L29.83 8.04Q29.83 8.30 29.87 8.50L29.87 8.50L29.87 8.50Q29.90 8.69 29.99 8.88L29.99 8.88L29.99 8.88Q30.02 8.93 30.02 8.95L30.02 8.95L30.02 8.95Q30.03 8.97 30.03 8.99L30.03 8.99L30.03 8.99Q29.27 8.99 28.90 8.67L28.90 8.67L28.90 8.67Q28.53 8.34 28.53 7.70L28.53 7.70L28.53 7.70Q28.53 6.94 29.02 6.22L29.02 6.22L29.02 6.22Q29.50 5.49 30.35 4.94L30.35 4.94L30.35 4.94Q31.05 4.48 31.90 4.23L31.90 4.23L31.90 4.23Q32.75 3.99 33.61 3.99L33.61 3.99L33.61 3.99Q34.99 3.99 35.79 4.61L35.79 4.61L35.79 4.61Q36.60 5.22 36.60 6.22L36.60 6.22L36.60 6.22Q36.60 6.87 36.22 7.48L36.22 7.48L36.22 7.48Q35.84 8.08 35.20 8.44L35.20 8.44L35.20 8.44Q35.99 8.60 36.42 9.19L36.42 9.19L36.42 9.19Q36.85 9.79 36.85 10.70L36.85 10.70L36.85 10.70Q36.85 11.35 36.65 12.08L36.65 12.08L36.65 12.08Q36.46 12.81 36.11 13.37L36.11 13.37L36.11 13.37Q35.69 14.04 35.10 14.38L35.10 14.38L35.10 14.38Q34.51 14.73 33.78 14.73L33.78 14.73L33.78 14.73Q33.12 14.73 32.76 14.46L32.76 14.46L32.76 14.46Q32.40 14.20 32.40 13.69L32.40 13.69L32.40 13.69Q32.40 13.52 32.44 13.32L32.44 13.32L32.44 13.32Q32.48 13.12 32.58 12.88L32.58 12.88L32.58 12.88Q32.84 13.15 33.06 13.27L33.06 13.27L33.06 13.27Q33.28 13.38 33.52 13.38L33.52 13.38L33.52 13.38Q34.15 13.38 34.52 12.66L34.52 12.66L34.52 12.66Q34.90 11.93 34.90 10.86L34.90 10.86L34.90 10.86Q34.90 9.98 34.57 9.53L34.57 9.53L34.57 9.53Q34.23 9.09 33.57 9.09L33.57 9.09L33.57 9.09Q33.47 9.09 33.28 9.10L33.28 9.10L33.28 9.10Q33.10 9.11 32.93 9.13L32.93 9.13ZM40.80 5.63L40.80 5.63L40.80 5.63Q40.80 6.09 40.47 6.41L40.47 6.41L40.47 6.41Q40.14 6.73 39.68 6.73L39.68 6.73L39.68 6.73Q39.21 6.73 38.89 6.41L38.89 6.41L38.89 6.41Q38.57 6.09 38.57 5.63L38.57 5.63L38.57 5.63Q38.57 5.17 38.89 4.84L38.89 4.84L38.89 4.84Q39.21 4.51 39.68 4.51L39.68 4.51L39.68 4.51Q40.14 4.51 40.47 4.84L40.47 4.84L40.47 4.84Q40.80 5.17 40.80 5.63ZM37.23 12.89L37.23 12.89L37.23 12.89Q37.23 12.71 37.25 12.48L37.25 12.48L37.25 12.48Q37.28 12.25 37.34 11.98L37.34 11.98L38.29 7.49L40.31 7.49L39.30 12.25L39.30 12.25Q39.27 12.38 39.26 12.48L39.26 12.48L39.26 12.48Q39.24 12.59 39.24 12.70L39.24 12.70L39.24 12.70Q39.24 12.98 39.38 13.10L39.38 13.10L39.38 13.10Q39.51 13.22 39.82 13.22L39.82 13.22L39.82 13.22Q40.21 13.22 40.56 12.87L40.56 12.87L40.56 12.87Q40.91 12.53 41.08 11.98L41.08 11.98L41.66 11.98L41.66 11.98Q41.22 13.26 40.46 13.92L40.46 13.92L40.46 13.92Q39.70 14.57 38.72 14.57L38.72 14.57L38.72 14.57Q38.02 14.57 37.63 14.13L37.63 14.13L37.63 14.13Q37.23 13.69 37.23 12.89ZM43.68 9.17L42.56 14.49L40.54 14.49L42.03 7.49L44.04 7.49L43.86 8.36L43.86 8.36Q44.48 7.84 44.84 7.67L44.84 7.67L44.84 7.67Q45.19 7.49 45.56 7.49L45.56 7.49L45.56 7.49Q45.99 7.49 46.26 7.79L46.26 7.79L46.26 7.79Q46.52 8.09 46.52 8.54L46.52 8.54L46.52 8.54Q46.52 8.97 46.24 9.27L46.24 9.27L46.24 9.27Q45.96 9.56 45.51 9.56L45.51 9.56L45.51 9.56Q45.28 9.56 45.14 9.45L45.14 9.45L45.14 9.45Q45.01 9.34 44.95 8.99L44.95 8.99L44.95 8.99Q44.91 8.76 44.86 8.70L44.86 8.70L44.86 8.70Q44.80 8.64 44.70 8.64L44.70 8.64L44.70 8.64Q44.46 8.64 44.25 8.74L44.25 8.74L44.25 8.74Q44.04 8.83 43.68 9.17L43.68 9.17ZM48.06 12.12L48.06 12.12L48.06 12.12Q48.06 12.67 48.22 12.94L48.22 12.94L48.22 12.94Q48.37 13.22 48.76 13.22L48.76 13.22L48.76 13.22Q49.11 13.22 49.45 12.89L49.45 12.89L49.45 12.89Q49.78 12.56 49.91 12.05L49.91 12.05L49.91 11.98L50.60 8.78L50.60 8.78Q50.55 8.55 50.41 8.42L50.41 8.42L50.41 8.42Q50.26 8.29 50.02 8.29L50.02 8.29L50.02 8.29Q49.25 8.29 48.66 9.58L48.66 9.58L48.66 9.58Q48.06 10.86 48.06 12.12ZM50.72 8.13L50.72 8.13L50.72 8.19L51.41 4.97L53.48 4.69L51.87 12.25L51.87 12.25Q51.84 12.38 51.83 12.48L51.83 12.48L51.83 12.48Q51.81 12.59 51.81 12.70L51.81 12.70L51.81 12.70Q51.81 12.98 51.95 13.10L51.95 13.10L51.95 13.10Q52.08 13.22 52.39 13.22L52.39 13.22L52.39 13.22Q52.75 13.22 53.05 12.89L53.05 12.89L53.05 12.89Q53.34 12.57 53.52 11.98L53.52 11.98L54.11 11.98L54.11 11.98Q53.68 13.23 52.98 13.86L52.98 13.86L52.98 13.86Q52.29 14.49 51.30 14.49L51.30 14.49L51.30 14.49Q50.72 14.49 50.37 14.18L50.37 14.18L50.37 14.18Q50.01 13.86 49.92 13.29L49.92 13.29L49.92 13.29Q49.50 13.93 48.99 14.25L48.99 14.25L48.99 14.25Q48.47 14.57 47.85 14.57L47.85 14.57L47.85 14.57Q46.98 14.57 46.49 13.99L46.49 13.99L46.49 13.99Q45.99 13.40 45.99 12.32L45.99 12.32L45.99 12.32Q45.99 11.54 46.23 10.68L46.23 10.68L46.23 10.68Q46.47 9.83 46.89 9.13L46.89 9.13L46.89 9.13Q47.40 8.30 48.09 7.86L48.09 7.86L48.09 7.86Q48.78 7.42 49.59 7.42L49.59 7.42L49.59 7.42Q50.13 7.42 50.43 7.61L50.43 7.61L50.43 7.61Q50.72 7.80 50.72 8.13Z"></path></g><!----><!----></svg>